<svg width="167" height="44" viewBox="0 0 167 44" fill="none" xmlns="http://www.w3.org/2000/svg">
<path d="M65.4953 18.5104C64.8892 18.4282 64.355 18.3871 63.8927 18.3871C62.2079 18.3871 61.1036 18.9573 60.5796 20.0976V31.0077H56.1262V14.3344H60.3331L60.4564 16.3223C61.3501 14.7916 62.588 14.0262 64.1701 14.0262C64.6632 14.0262 65.1255 14.093 65.557 14.2265L65.4953 18.5104ZM64.511 22.5169C64.511 20.863 64.8294 19.3888 65.4664 18.0944C66.1033 16.8 67.0176 15.7983 68.2093 15.0895C69.4113 14.3806 70.8033 14.0262 72.3853 14.0262C74.6351 14.0262 76.4689 14.7145 77.8866 16.0911C79.3146 17.4677 80.1107 19.3374 80.2751 21.7002L80.3059 22.8406C80.3059 25.3986 79.5919 27.4532 78.164 29.0044C76.736 30.5454 74.8201 31.3159 72.4161 31.3159C70.0122 31.3159 68.0912 30.5454 66.6529 29.0044C65.225 27.4635 64.511 25.3677 64.511 22.7173V22.5169ZM68.9644 22.8406C68.9644 24.4226 69.2623 25.6348 69.8581 26.4772C70.454 27.3094 71.3066 27.7254 72.4161 27.7254C73.4948 27.7254 74.3372 27.3145 74.9433 26.4926C75.5495 25.6605 75.8525 24.3353 75.8525 22.5169C75.8525 20.9657 75.5495 19.7637 74.9433 18.9111C74.3372 18.0584 73.4846 17.6321 72.3853 17.6321C71.2964 17.6321 70.454 18.0584 69.8581 18.9111C69.2623 19.7535 68.9644 21.0633 68.9644 22.8406ZM88.0897 27.7254C88.9115 27.7254 89.5793 27.4994 90.0929 27.0474C90.6066 26.5954 90.8737 25.9944 90.8942 25.2445H95.0702C95.06 26.3745 94.7518 27.4121 94.1457 28.3572C93.5395 29.2921 92.7074 30.0215 91.6493 30.5454C90.6014 31.0591 89.4406 31.3159 88.1667 31.3159C85.7833 31.3159 83.9034 30.5608 82.5268 29.0507C81.1502 27.5302 80.4619 25.4345 80.4619 22.7635V22.4707C80.4619 19.9024 81.145 17.8529 82.5113 16.3223C83.8777 14.7916 85.7525 14.0262 88.1359 14.0262C90.2213 14.0262 91.8907 14.622 93.144 15.8137C94.4076 16.9951 95.0497 18.5721 95.0702 20.5445H90.8942C90.8737 19.6816 90.6066 18.983 90.0929 18.4488C89.5793 17.9043 88.9012 17.6321 88.0588 17.6321C87.0212 17.6321 86.2354 18.0122 85.7012 18.7724C85.1772 19.5223 84.9153 20.7448 84.9153 22.4399V22.9022C84.9153 24.6178 85.1772 25.8506 85.7012 26.6005C86.2251 27.3505 87.0212 27.7254 88.0897 27.7254ZM101.775 24.3199L100.173 25.9225V31.0077H95.7193V7.3384H100.173V20.452L101.036 19.3426L105.304 14.3344H110.651L104.626 21.2842L111.175 31.0077H106.059L101.775 24.3199ZM118.05 31.3159C115.605 31.3159 113.612 30.5659 112.071 29.0661C110.54 27.5662 109.775 25.5681 109.775 23.0717V22.6402C109.775 20.9657 110.098 19.471 110.746 18.156C111.393 16.8308 112.307 15.8137 113.489 15.1049C114.68 14.3858 116.036 14.0262 117.557 14.0262C119.837 14.0262 121.63 14.7453 122.935 16.1836C124.25 17.6218 124.907 19.661 124.907 22.3012V24.1196H114.29C114.434 25.2085 114.865 26.0817 115.584 26.7392C116.314 27.3967 117.233 27.7254 118.343 27.7254C120.058 27.7254 121.399 27.1039 122.365 25.8609L124.553 28.311C123.885 29.2561 122.981 29.9958 121.841 30.53C120.7 31.0539 119.437 31.3159 118.05 31.3159ZM117.541 17.6321C116.658 17.6321 115.939 17.93 115.384 18.5258C114.839 19.1217 114.49 19.9743 114.336 21.0838H120.531V20.7294C120.51 19.7432 120.243 18.983 119.729 18.4488C119.216 17.9043 118.486 17.6321 117.541 17.6321ZM130.888 10.2354V14.3344H133.739V17.6013H130.888V25.9225C130.888 26.5389 131.006 26.9806 131.242 27.2477C131.479 27.5148 131.931 27.6484 132.598 27.6484C133.092 27.6484 133.528 27.6124 133.908 27.5405V30.9152C133.035 31.1823 132.136 31.3159 131.212 31.3159C128.088 31.3159 126.496 29.739 126.435 26.5851V17.6013H124V14.3344H126.435V10.2354H130.888ZM140.923 22.5169C140.923 19.8973 141.504 17.8273 142.665 16.3068C143.836 14.7864 145.438 14.0262 147.472 14.0262C149.26 14.0262 150.683 14.7094 151.741 16.0757L152.034 14.3344H155.948V37.4181H151.479V29.5746C150.452 30.7355 149.106 31.3159 147.442 31.3159C145.459 31.3159 143.877 30.5454 142.695 29.0044C141.514 27.4635 140.923 25.301 140.923 22.5169ZM145.377 22.8406C145.377 24.4329 145.654 25.6451 146.209 26.4772C146.774 27.3094 147.565 27.7254 148.582 27.7254C149.948 27.7254 150.914 27.1809 151.479 26.092V19.2039C150.924 18.156 149.969 17.6321 148.613 17.6321C147.585 17.6321 146.789 18.0481 146.224 18.8803C145.659 19.7124 145.377 21.0325 145.377 22.8406Z" fill="#FAFAFA"/>
<path d="M134.557 28.8195C134.557 28.1107 134.794 27.5354 135.266 27.0936C135.749 26.6519 136.35 26.431 137.069 26.431C137.798 26.431 138.399 26.6519 138.872 27.0936C139.355 27.5354 139.596 28.1107 139.596 28.8195C139.596 29.5181 139.36 30.0882 138.887 30.53C138.415 30.9615 137.809 31.1772 137.069 31.1772C136.34 31.1772 135.739 30.9615 135.266 30.53C134.794 30.0882 134.557 29.5181 134.557 28.8195Z" fill="url(#paint0_linear)"/>
<rect width="43.832" height="44" rx="7.88976" fill="url(#paint1_linear)"/>
<g filter="url(#filter0_di)">
<path d="M33.2583 32.5373H29.3495C29.1856 32.5373 29.0509 32.4094 29.0364 32.2462C29.0316 32.1916 29.0264 32.1388 29.0207 32.0875C28.7951 30.0446 26.6001 28.2843 24.5598 28.5326C23.0686 28.7141 21.8343 29.8438 20.3417 30.0125C19.3389 30.1259 18.4634 30.0742 17.4633 29.8777C16.5821 29.7047 15.7318 29.3875 14.9496 28.9463C13.1092 27.9083 12.1223 26.8391 11.2061 25.2268C10.68 24.301 10.3046 23.288 10.1669 22.2321C10.0511 21.3434 10.0587 20.5619 10.156 19.6994C10.3022 18.404 10.7157 17.1428 11.3904 16.0273C12.3457 14.4478 13.3772 13.4668 15.0594 12.5489C15.7723 12.1599 16.5397 11.8755 17.3329 11.7008C19.3339 11.2601 20.6301 11.3896 22.576 12.0019C23.6607 12.3432 24.839 13.075 25.8405 14.0299C28.0267 16.1143 28.1914 19.3848 28.2465 22.4049C28.2517 22.686 27.9945 22.8996 27.7179 22.8494C26.368 22.6046 25.3968 22.5852 24.0695 22.797C23.7137 22.8538 23.4207 22.486 23.5166 22.1387C23.5607 21.9789 23.5948 21.8223 23.6198 21.6679C23.9988 19.3358 22.4168 16.6769 20.0661 16.4402C18.7255 16.3053 17.3972 16.8531 16.4139 17.955C15.8263 18.5111 15.5023 19.3848 15.4017 20.3154C15.1429 22.7078 17.0925 25.0243 19.496 25.1398C19.9534 25.1618 20.395 25.0954 20.8462 24.9425C22.2757 24.4578 23.6682 23.7306 25.1732 23.845C29.6851 24.1879 32.8536 26.2325 33.6871 32.0462C33.7243 32.3058 33.5206 32.5373 33.2583 32.5373Z" fill="#FAFAFA"/>
</g>
<defs>
<filter id="filter0_di" x="8.44918" y="11.4401" width="26.8746" height="24.362" filterUnits="userSpaceOnUse" color-interpolation-filters="sRGB">
<feFlood flood-opacity="0" result="BackgroundImageFix"/>
<feColorMatrix in="SourceAlpha" type="matrix" values="0 0 0 0 0 0 0 0 0 0 0 0 0 0 0 0 0 0 127 0" result="hardAlpha"/>
<feOffset dy="1.63237"/>
<feGaussianBlur stdDeviation="0.816183"/>
<feColorMatrix type="matrix" values="0 0 0 0 0 0 0 0 0 0 0 0 0 0 0 0 0 0 0.07 0"/>
<feBlend mode="normal" in2="BackgroundImageFix" result="effect1_dropShadow"/>
<feBlend mode="normal" in="SourceGraphic" in2="effect1_dropShadow" result="shape"/>
<feColorMatrix in="SourceAlpha" type="matrix" values="0 0 0 0 0 0 0 0 0 0 0 0 0 0 0 0 0 0 127 0" result="hardAlpha"/>
<feOffset dy="1.63237"/>
<feGaussianBlur stdDeviation="1.02023"/>
<feComposite in2="hardAlpha" operator="arithmetic" k2="-1" k3="1"/>
<feColorMatrix type="matrix" values="0 0 0 0 0.219608 0 0 0 0 0.533333 0 0 0 0 1 0 0 0 0.13 0"/>
<feBlend mode="normal" in2="shape" result="effect2_innerShadow"/>
</filter>
<linearGradient id="paint0_linear" x1="189.169" y1="-59.2553" x2="177.482" y2="54.3321" gradientUnits="userSpaceOnUse">
<stop stop-color="#5498FF"/>
<stop offset="0.515625" stop-color="#428EFF"/>
<stop offset="1" stop-color="#297FFF"/>
</linearGradient>
<linearGradient id="paint1_linear" x1="52.463" y1="-66.5618" x2="19.3798" y2="48.6572" gradientUnits="userSpaceOnUse">
<stop stop-color="#5498FF"/>
<stop offset="0.515625" stop-color="#428EFF"/>
<stop offset="1" stop-color="#297FFF"/>
</linearGradient>
</defs>
</svg>
